<?xml version="1.0" encoding="UTF-8" standalone="no"?>
<svg
   height="24px"
   viewBox="0 -960 960 960"
   width="24px"
   fill="#e8eaed"
   version="1.1"
   id="svg134"
   sodipodi:docname="Chess2D.svg"
   inkscape:version="1.2.2 (b0a84865, 2022-12-01)"
   xmlns:inkscape="http://www.inkscape.org/namespaces/inkscape"
   xmlns:sodipodi="http://sodipodi.sourceforge.net/DTD/sodipodi-0.dtd"
   xmlns="http://www.w3.org/2000/svg"
   xmlns:svg="http://www.w3.org/2000/svg">
  <defs
     id="defs138" />
  <sodipodi:namedview
     id="namedview136"
     pagecolor="#ffffff"
     bordercolor="#666666"
     borderopacity="1.0"
     inkscape:showpageshadow="2"
     inkscape:pageopacity="0.0"
     inkscape:pagecheckerboard="0"
     inkscape:deskcolor="#d1d1d1"
     showgrid="false"
     inkscape:zoom="9.8333333"
     inkscape:cx="4.6779661"
     inkscape:cy="12"
     inkscape:window-width="1352"
     inkscape:window-height="728"
     inkscape:window-x="0"
     inkscape:window-y="35"
     inkscape:window-maximized="1"
     inkscape:current-layer="svg134" />
  <path
     d="M200-160h560v-80H200v80Zm132-160h296l-23-160H355l-23 160ZM120-80v-160q0-33 23.5-56.5T200-320h52l22-160H160v-80h640v80H686l22 160h52q33 0 56.5 23.5T840-240v160H120Zm151-480-71-320q33 25 68 47t77 22q40 0 73.5-20.5T480-880q28 28 61.5 48.5T615-811q42 0 77-22t68-47l-71 320h-82l39-173-7.5 1q-7.5 1-23.5 1-36 0-70.5-11T480-773q-29 20-62.5 31T349-731q-18 0-26.5-1l-8.5-1 39 173h-82Zm209 80Zm0-80Zm0 400Z"
     id="path132"
     style="fill:#8da5f3;fill-opacity:1" />
</svg>
