<?xml version="1.0" encoding="UTF-8" standalone="no"?>
<!-- Created with Inkscape (http://www.inkscape.org/) -->

<svg
   width="450"
   height="450"
   viewBox="0 0 119.0625 119.0625"
   version="1.1"
   id="svg5"
   inkscape:version="1.2.2 (b0a84865, 2022-12-01)"
   sodipodi:docname="Flourish.svg"
   xmlns:inkscape="http://www.inkscape.org/namespaces/inkscape"
   xmlns:sodipodi="http://sodipodi.sourceforge.net/DTD/sodipodi-0.dtd"
   xmlns="http://www.w3.org/2000/svg"
   xmlns:svg="http://www.w3.org/2000/svg">
  <sodipodi:namedview
     id="namedview7"
     pagecolor="#000000"
     bordercolor="#666666"
     borderopacity="1.0"
     inkscape:showpageshadow="2"
     inkscape:pageopacity="0"
     inkscape:pagecheckerboard="0"
     inkscape:deskcolor="#d1d1d1"
     inkscape:document-units="px"
     showgrid="false"
     inkscape:zoom="1.1487896"
     inkscape:cx="252.87486"
     inkscape:cy="187.15351"
     inkscape:window-width="1352"
     inkscape:window-height="844"
     inkscape:window-x="0"
     inkscape:window-y="34"
     inkscape:window-maximized="0"
     inkscape:current-layer="layer1" />
  <defs
     id="defs2">
    <inkscape:path-effect
       effect="skeletal"
       id="path-effect1628"
       is_visible="true"
       lpeversion="1"
       pattern="M 0,4.9921382 C 0,2.2364779 2.2364779,0 4.9921382,0 c 2.7556604,0 4.9921383,2.2364779 4.9921383,4.9921382 0,2.7556604 -2.2364779,4.9921383 -4.9921383,4.9921383 C 2.2364779,9.9842765 0,7.7477986 0,4.9921382 Z"
       copytype="single_stretched"
       prop_scale="0.78380216"
       scale_y_rel="false"
       spacing="0"
       normal_offset="0"
       tang_offset="0"
       prop_units="false"
       vertical_pattern="false"
       hide_knot="false"
       fuse_tolerance="0" />
    <inkscape:path-effect
       effect="spiro"
       id="path-effect1624"
       is_visible="true"
       lpeversion="1" />
    <inkscape:path-effect
       effect="skeletal"
       id="path-effect1620"
       is_visible="true"
       lpeversion="1"
       pattern="M 0,4.9921382 C 0,2.2364779 2.2364779,0 4.9921382,0 c 2.7556604,0 4.9921383,2.2364779 4.9921383,4.9921382 0,2.7556604 -2.2364779,4.9921383 -4.9921383,4.9921383 C 2.2364779,9.9842765 0,7.7477986 0,4.9921382 Z"
       copytype="single_stretched"
       prop_scale="0.94270187"
       scale_y_rel="false"
       spacing="0"
       normal_offset="0"
       tang_offset="0"
       prop_units="false"
       vertical_pattern="false"
       hide_knot="false"
       fuse_tolerance="0" />
    <inkscape:path-effect
       effect="spiro"
       id="path-effect1616"
       is_visible="true"
       lpeversion="1" />
    <inkscape:path-effect
       effect="skeletal"
       id="path-effect1327"
       is_visible="true"
       lpeversion="1"
       pattern="M 0,4.9921382 C 0,2.2364779 2.2364779,0 4.9921382,0 c 2.7556604,0 4.9921383,2.2364779 4.9921383,4.9921382 0,2.7556604 -2.2364779,4.9921383 -4.9921383,4.9921383 C 2.2364779,9.9842765 0,7.7477986 0,4.9921382 Z"
       copytype="single_stretched"
       prop_scale="0.78380216"
       scale_y_rel="false"
       spacing="0"
       normal_offset="0"
       tang_offset="0"
       prop_units="false"
       vertical_pattern="false"
       hide_knot="false"
       fuse_tolerance="0" />
    <inkscape:path-effect
       effect="spiro"
       id="path-effect1323"
       is_visible="true"
       lpeversion="1" />
    <inkscape:path-effect
       effect="skeletal"
       id="path-effect1319"
       is_visible="true"
       lpeversion="1"
       pattern="M 0,4.9921382 C 0,2.2364779 2.2364779,0 4.9921382,0 c 2.7556604,0 4.9921383,2.2364779 4.9921383,4.9921382 0,2.7556604 -2.2364779,4.9921383 -4.9921383,4.9921383 C 2.2364779,9.9842765 0,7.7477986 0,4.9921382 Z"
       copytype="single_stretched"
       prop_scale="1.67129"
       scale_y_rel="false"
       spacing="0"
       normal_offset="0"
       tang_offset="0"
       prop_units="false"
       vertical_pattern="false"
       hide_knot="false"
       fuse_tolerance="0" />
    <inkscape:path-effect
       effect="spiro"
       id="path-effect1315"
       is_visible="true"
       lpeversion="1" />
    <inkscape:path-effect
       effect="skeletal"
       id="path-effect1311"
       is_visible="true"
       lpeversion="1"
       pattern="M 0,4.9921382 C 0,2.2364779 2.2364779,0 4.9921382,0 c 2.7556604,0 4.9921383,2.2364779 4.9921383,4.9921382 0,2.7556604 -2.2364779,4.9921383 -4.9921383,4.9921383 C 2.2364779,9.9842765 0,7.7477986 0,4.9921382 Z"
       copytype="single_stretched"
       prop_scale="0.78380216"
       scale_y_rel="false"
       spacing="0"
       normal_offset="0"
       tang_offset="0"
       prop_units="false"
       vertical_pattern="false"
       hide_knot="false"
       fuse_tolerance="0" />
    <inkscape:path-effect
       effect="spiro"
       id="path-effect1307"
       is_visible="true"
       lpeversion="1" />
    <inkscape:path-effect
       effect="skeletal"
       id="path-effect1303"
       is_visible="true"
       lpeversion="1"
       pattern="M 0,4.9921382 C 0,2.2364779 2.2364779,0 4.9921382,0 c 2.7556604,0 4.9921383,2.2364779 4.9921383,4.9921382 0,2.7556604 -2.2364779,4.9921383 -4.9921383,4.9921383 C 2.2364779,9.9842765 0,7.7477986 0,4.9921382 Z"
       copytype="single_stretched"
       prop_scale="1.67129"
       scale_y_rel="false"
       spacing="0"
       normal_offset="0"
       tang_offset="0"
       prop_units="false"
       vertical_pattern="false"
       hide_knot="false"
       fuse_tolerance="0" />
    <inkscape:path-effect
       effect="spiro"
       id="path-effect1299"
       is_visible="true"
       lpeversion="1" />
    <inkscape:path-effect
       effect="skeletal"
       id="path-effect1283"
       is_visible="true"
       lpeversion="1"
       pattern="M 0,4.9921382 C 0,2.2364779 2.2364779,0 4.9921382,0 c 2.7556604,0 4.9921383,2.2364779 4.9921383,4.9921382 0,2.7556604 -2.2364779,4.9921383 -4.9921383,4.9921383 C 2.2364779,9.9842765 0,7.7477986 0,4.9921382 Z"
       copytype="single_stretched"
       prop_scale="0.78380216"
       scale_y_rel="false"
       spacing="0"
       normal_offset="0"
       tang_offset="0"
       prop_units="false"
       vertical_pattern="false"
       hide_knot="false"
       fuse_tolerance="0" />
    <inkscape:path-effect
       effect="spiro"
       id="path-effect1279"
       is_visible="true"
       lpeversion="1" />
    <inkscape:path-effect
       effect="skeletal"
       id="path-effect1275"
       is_visible="true"
       lpeversion="1"
       pattern="M 0,4.9921382 C 0,2.2364779 2.2364779,0 4.9921382,0 c 2.7556604,0 4.9921383,2.2364779 4.9921383,4.9921382 0,2.7556604 -2.2364779,4.9921383 -4.9921383,4.9921383 C 2.2364779,9.9842765 0,7.7477986 0,4.9921382 Z"
       copytype="single_stretched"
       prop_scale="1.67129"
       scale_y_rel="false"
       spacing="0"
       normal_offset="0"
       tang_offset="0"
       prop_units="false"
       vertical_pattern="false"
       hide_knot="false"
       fuse_tolerance="0" />
    <inkscape:path-effect
       effect="spiro"
       id="path-effect1271"
       is_visible="true"
       lpeversion="1" />
    <inkscape:path-effect
       effect="skeletal"
       id="path-effect594"
       is_visible="true"
       lpeversion="1"
       pattern="M 0,4.9921382 C 0,2.2364779 2.2364779,0 4.9921382,0 c 2.7556604,0 4.9921383,2.2364779 4.9921383,4.9921382 0,2.7556604 -2.2364779,4.9921383 -4.9921383,4.9921383 C 2.2364779,9.9842765 0,7.7477986 0,4.9921382 Z"
       copytype="single_stretched"
       prop_scale="1.2871063"
       scale_y_rel="false"
       spacing="0"
       normal_offset="0"
       tang_offset="0"
       prop_units="false"
       vertical_pattern="false"
       hide_knot="false"
       fuse_tolerance="0" />
    <inkscape:path-effect
       effect="spiro"
       id="path-effect590"
       is_visible="true"
       lpeversion="1" />
    <inkscape:path-effect
       effect="skeletal"
       id="path-effect586"
       is_visible="true"
       lpeversion="1"
       pattern="M 0,4.9921382 C 0,2.2364779 2.2364779,0 4.9921382,0 c 2.7556604,0 4.9921383,2.2364779 4.9921383,4.9921382 0,2.7556604 -2.2364779,4.9921383 -4.9921383,4.9921383 C 2.2364779,9.9842765 0,7.7477986 0,4.9921382 Z"
       copytype="single_stretched"
       prop_scale="1.67129"
       scale_y_rel="false"
       spacing="0"
       normal_offset="0"
       tang_offset="0"
       prop_units="false"
       vertical_pattern="false"
       hide_knot="false"
       fuse_tolerance="0" />
    <inkscape:path-effect
       effect="spiro"
       id="path-effect582"
       is_visible="true"
       lpeversion="1" />
    <inkscape:path-effect
       effect="skeletal"
       id="path-effect568"
       is_visible="true"
       lpeversion="1"
       pattern="M 0,4.9921382 C 0,2.2364779 2.2364779,0 4.9921382,0 c 2.7556604,0 4.9921383,2.2364779 4.9921383,4.9921382 0,2.7556604 -2.2364779,4.9921383 -4.9921383,4.9921383 C 2.2364779,9.9842765 0,7.7477986 0,4.9921382 Z"
       copytype="single_stretched"
       prop_scale="0.78380216"
       scale_y_rel="false"
       spacing="0"
       normal_offset="0"
       tang_offset="0"
       prop_units="false"
       vertical_pattern="false"
       hide_knot="false"
       fuse_tolerance="0" />
    <inkscape:path-effect
       effect="spiro"
       id="path-effect566"
       is_visible="true"
       lpeversion="1" />
    <inkscape:path-effect
       effect="skeletal"
       id="path-effect539"
       is_visible="true"
       lpeversion="1"
       pattern="M 0,4.9921382 C 0,2.2364779 2.2364779,0 4.9921382,0 c 2.7556604,0 4.9921383,2.2364779 4.9921383,4.9921382 0,2.7556604 -2.2364779,4.9921383 -4.9921383,4.9921383 C 2.2364779,9.9842765 0,7.7477986 0,4.9921382 Z"
       copytype="single_stretched"
       prop_scale="0.94270187"
       scale_y_rel="false"
       spacing="0"
       normal_offset="0"
       tang_offset="0"
       prop_units="false"
       vertical_pattern="false"
       hide_knot="false"
       fuse_tolerance="0" />
    <inkscape:path-effect
       effect="spiro"
       id="path-effect537"
       is_visible="true"
       lpeversion="1" />
  </defs>
  <g
     inkscape:label="Layer 1"
     inkscape:groupmode="layer"
     id="layer1">
    <g
       id="g1670"
       transform="translate(-61.203161)">
      <g
         id="g1606"
         transform="matrix(-1,0,0,1,180.19101,0)">
        <path
           style="fill:#ffffff;stroke:none;stroke-width:0.264583px;stroke-linecap:butt;stroke-linejoin:miter;stroke-opacity:1"
           d="m 90.508245,143.68658 c -0.123767,0.37937 -0.969213,0.44468 -2.264979,0.7488 -1.295766,0.30411 -3.175778,0.91931 -4.545487,2.43138 -1.186375,1.26883 -2.14381,3.52203 -1.703515,5.6287 10e-7,0 0,0 0,0 0.276265,1.65914 1.545864,3.45713 3.298184,4.43141 1.520119,0.87748 3.648289,1.12896 5.648002,0.66729 2.20781,-0.50104 4.436276,-2.11445 5.770398,-4.27423 -10e-7,0 2e-6,0 2e-6,0 1.252888,-1.98587 1.782818,-4.67833 1.423893,-7.25629 -0.387467,-3.63403 -2.982799,-7.2639 -6.447404,-10.18646 -0.397534,-0.32942 -0.810222,-0.64669 -1.23735,-0.95302 -3.523318,-2.52684 -7.970427,-4.25147 -12.345876,-5.79348 -4.610181,-1.57422 -9.344518,-2.92633 -13.86758,-4.607 -10e-7,0 -6e-6,0 -6e-6,0 -4.21536,-1.55921 -8.082608,-3.36921 -11.608066,-5.59555 -8.958773,-5.6935 -13.927793,-13.22775 -16.280818,-18.53099 -2.397774,-5.404082 -2.509198,-8.819952 -1.748005,-9.082635 0.761193,-0.262683 2.324009,2.572914 5.589524,6.831011 3.206011,4.180504 8.465926,10.008104 16.331763,14.066234 3.12284,1.62601 6.567453,2.92312 10.507167,4.15431 0,0 6e-6,0 6e-6,0 4.678339,1.4538 9.252959,2.54916 13.931299,4.00296 4.814977,1.45274 10.085563,3.50945 14.914594,6.90201 0.582336,0.40911 1.155611,0.83574 1.718902,1.28093 5.133277,4.00915 8.752927,9.83931 9.611707,16.40339 0.53881,4.76859 -0.69921,9.44454 -3.26962,13.18646 0,0 0,0 0,0 -2.83619,4.08854 -7.116763,6.59571 -11.57211,7.30175 -4.056833,0.63628 -7.992097,-0.40717 -11.024627,-2.54403 -3.537528,-2.52608 -5.264072,-6.37216 -5.373693,-9.95969 10e-7,0 10e-7,0 2e-6,0 -0.05612,-4.57331 2.470341,-7.90469 5.009077,-9.55066 5.931985,-3.76857 9.78215,-0.46134 9.534616,0.2974 z"
           id="path535"
           sodipodi:nodetypes="csssssssc"
           transform="matrix(0,-0.39292275,0.39292275,0,46.35568,75.474087)"
           inkscape:original-d="m 90.508245,143.68658 c -101.302318,10.34396 -10.221208,2.49135 -11.528838,9.03107 -1.30762,6.53971 -4.687284,11.29783 12.672253,8.80121 17.35953,-2.49662 34.08417,-15.05843 11.01801,-16.00936 -23.066157,-0.95093 -14.107669,-20.88348 -8.029554,-13.29493 4.71218,5.88317 4.18694,-3.4058 -15.108361,-7.46472 -18.118707,-3.81142 4.292384,-7.75279 -13.899445,-4.30498 -18.191829,3.44781 -25.50213,2.96445 -11.057617,-4.87493 C 73.548985,105.27214 37.096787,96.546343 34.599641,91.314513"
           inkscape:path-effect="#path-effect537;#path-effect539"
           class="UnoptimicedTransforms" />
        <path
           style="fill:#ffffff;stroke:none;stroke-width:0.264583px;stroke-linecap:butt;stroke-linejoin:miter;stroke-opacity:1"
           d="m 37.69574,97.031097 c 1.424306,-0.982203 13.147285,13.236503 27.369202,34.339613 2.531118,3.70098 5.426778,8.14386 7.201114,13.4058 0.684741,2.06419 1.154285,4.28721 1.298439,6.61317 0.0333,0.53733 0.04907,1.07751 0.04645,1.61991 -0.01178,2.93533 -0.660756,5.87381 -1.974646,8.56682 -2.425912,4.8482 -6.81603,8.12424 -11.624196,9.31604 -5.316505,1.28105 -10.561617,-0.0435 -14.398782,-2.81922 -1e-6,0 -2e-6,0 -3e-6,0 -2.747759,-2.00343 -4.676229,-4.6527 -5.78742,-7.41537 -1.272754,-3.17758 -1.434957,-6.39046 -0.921275,-9.14887 0,0 10e-7,-1e-5 10e-7,-1e-5 0.651151,-3.47245 2.33053,-6.14333 4.056198,-7.91882 3.942649,-4.04877 7.46038,-3.95152 7.692769,-3.3143 0.232389,0.63722 -2.53154,1.9519 -4.764058,5.6491 -0.980705,1.61957 -1.814993,3.78342 -1.906012,6.22213 0,0 0,0 0,0 -0.07552,1.92963 0.324883,4.08515 1.357576,6.02748 0.892243,1.68728 2.296969,3.26715 4.064965,4.35089 0,0 3e-6,1e-5 3e-6,1e-5 2.397076,1.48717 5.766701,2.08841 8.728055,1.20024 2.673902,-0.76849 5.280058,-2.86474 6.530915,-5.55114 0.740008,-1.51596 1.092485,-3.33518 1.122218,-5.23219 0.0051,-0.35351 -0.0039,-0.71073 -0.02598,-1.0712 -0.09557,-1.55902 -0.435112,-3.14993 -0.915218,-4.7097 -1.197203,-3.98081 -3.719214,-7.96276 -6.0259,-11.76397 C 45.538168,113.8474 36.271434,98.0133 37.69574,97.031097 Z"
           id="path564"
           sodipodi:nodetypes="cscsc"
           transform="matrix(0,-0.39292275,0.39292275,0,46.35568,75.474087)"
           inkscape:original-d="m 37.69574,97.031097 c 9.512191,12.009083 19.966704,21.728693 24.246808,36.353013 4.349885,14.86275 19.525087,21.14118 6.208121,26.49138 -13.316966,5.3502 -23.613188,12.20137 -20.640974,5.42386 2.972214,-6.77751 2.311864,-30.96818 3.143894,-25.02349"
           inkscape:path-effect="#path-effect566;#path-effect568"
           class="UnoptimicedTransforms" />
      </g>
      <g
         id="g1612"
         transform="rotate(180,90.095503,62.043435)">
        <path
           style="fill:#ffffff;stroke:none;stroke-width:0.264583px;stroke-linecap:butt;stroke-linejoin:miter;stroke-opacity:1"
           d="m 90.508245,143.68658 c -0.123767,0.37937 -0.969213,0.44468 -2.264979,0.7488 -1.295766,0.30411 -3.175778,0.91931 -4.545487,2.43138 -1.186375,1.26883 -2.14381,3.52203 -1.703515,5.6287 10e-7,0 0,0 0,0 0.276265,1.65914 1.545864,3.45713 3.298184,4.43141 1.520119,0.87748 3.648289,1.12896 5.648002,0.66729 2.20781,-0.50104 4.436276,-2.11445 5.770398,-4.27423 -10e-7,0 2e-6,0 2e-6,0 1.252888,-1.98587 1.782818,-4.67833 1.423893,-7.25629 -0.387467,-3.63403 -2.982799,-7.2639 -6.447404,-10.18646 -0.397534,-0.32942 -0.810222,-0.64669 -1.23735,-0.95302 -3.523318,-2.52684 -7.970427,-4.25147 -12.345876,-5.79348 -4.610181,-1.57422 -9.344518,-2.92633 -13.86758,-4.607 -10e-7,0 -6e-6,0 -6e-6,0 -4.21536,-1.55921 -8.082608,-3.36921 -11.608066,-5.59555 -8.958773,-5.6935 -13.927793,-13.22775 -16.280818,-18.53099 -2.397774,-5.404082 -2.509198,-8.819952 -1.748005,-9.082635 0.761193,-0.262683 2.324009,2.572914 5.589524,6.831011 3.206011,4.180504 8.465926,10.008104 16.331763,14.066234 3.12284,1.62601 6.567453,2.92312 10.507167,4.15431 0,0 6e-6,0 6e-6,0 4.678339,1.4538 9.252959,2.54916 13.931299,4.00296 4.814977,1.45274 10.085563,3.50945 14.914594,6.90201 0.582336,0.40911 1.155611,0.83574 1.718902,1.28093 5.133277,4.00915 8.752927,9.83931 9.611707,16.40339 0.53881,4.76859 -0.69921,9.44454 -3.26962,13.18646 0,0 0,0 0,0 -2.83619,4.08854 -7.116763,6.59571 -11.57211,7.30175 -4.056833,0.63628 -7.992097,-0.40717 -11.024627,-2.54403 -3.537528,-2.52608 -5.264072,-6.37216 -5.373693,-9.95969 10e-7,0 10e-7,0 2e-6,0 -0.05612,-4.57331 2.470341,-7.90469 5.009077,-9.55066 5.931985,-3.76857 9.78215,-0.46134 9.534616,0.2974 z"
           id="path1608"
           sodipodi:nodetypes="csssssssc"
           transform="matrix(0,-0.39292275,0.39292275,0,46.35568,75.474087)"
           inkscape:original-d="m 90.508245,143.68658 c -101.302318,10.34396 -10.221208,2.49135 -11.528838,9.03107 -1.30762,6.53971 -4.687284,11.29783 12.672253,8.80121 17.35953,-2.49662 34.08417,-15.05843 11.01801,-16.00936 -23.066157,-0.95093 -14.107669,-20.88348 -8.029554,-13.29493 4.71218,5.88317 4.18694,-3.4058 -15.108361,-7.46472 -18.118707,-3.81142 4.292384,-7.75279 -13.899445,-4.30498 -18.191829,3.44781 -25.50213,2.96445 -11.057617,-4.87493 C 73.548985,105.27214 37.096787,96.546343 34.599641,91.314513"
           inkscape:path-effect="#path-effect1616;#path-effect1620"
           class="UnoptimicedTransforms" />
        <path
           style="fill:#ffffff;stroke:none;stroke-width:0.264583px;stroke-linecap:butt;stroke-linejoin:miter;stroke-opacity:1"
           d="m 37.69574,97.031097 c 1.424306,-0.982203 13.147285,13.236503 27.369202,34.339613 2.531118,3.70098 5.426778,8.14386 7.201114,13.4058 0.684741,2.06419 1.154285,4.28721 1.298439,6.61317 0.0333,0.53733 0.04907,1.07751 0.04645,1.61991 -0.01178,2.93533 -0.660756,5.87381 -1.974646,8.56682 -2.425912,4.8482 -6.81603,8.12424 -11.624196,9.31604 -5.316505,1.28105 -10.561617,-0.0435 -14.398782,-2.81922 -1e-6,0 -2e-6,0 -3e-6,0 -2.747759,-2.00343 -4.676229,-4.6527 -5.78742,-7.41537 -1.272754,-3.17758 -1.434957,-6.39046 -0.921275,-9.14887 0,0 10e-7,-1e-5 10e-7,-1e-5 0.651151,-3.47245 2.33053,-6.14333 4.056198,-7.91882 3.942649,-4.04877 7.46038,-3.95152 7.692769,-3.3143 0.232389,0.63722 -2.53154,1.9519 -4.764058,5.6491 -0.980705,1.61957 -1.814993,3.78342 -1.906012,6.22213 0,0 0,0 0,0 -0.07552,1.92963 0.324883,4.08515 1.357576,6.02748 0.892243,1.68728 2.296969,3.26715 4.064965,4.35089 0,0 3e-6,1e-5 3e-6,1e-5 2.397076,1.48717 5.766701,2.08841 8.728055,1.20024 2.673902,-0.76849 5.280058,-2.86474 6.530915,-5.55114 0.740008,-1.51596 1.092485,-3.33518 1.122218,-5.23219 0.0051,-0.35351 -0.0039,-0.71073 -0.02598,-1.0712 -0.09557,-1.55902 -0.435112,-3.14993 -0.915218,-4.7097 -1.197203,-3.98081 -3.719214,-7.96276 -6.0259,-11.76397 C 45.538168,113.8474 36.271434,98.0133 37.69574,97.031097 Z"
           id="path1610"
           sodipodi:nodetypes="cscsc"
           transform="matrix(0,-0.39292275,0.39292275,0,46.35568,75.474087)"
           inkscape:original-d="m 37.69574,97.031097 c 9.512191,12.009083 19.966704,21.728693 24.246808,36.353013 4.349885,14.86275 19.525087,21.14118 6.208121,26.49138 -13.316966,5.3502 -23.613188,12.20137 -20.640974,5.42386 2.972214,-6.77751 2.311864,-30.96818 3.143894,-25.02349"
           inkscape:path-effect="#path-effect1624;#path-effect1628"
           class="UnoptimicedTransforms" />
      </g>
    </g>
  </g>
</svg>
