<?xml version="1.0" encoding="UTF-8" standalone="no"?>
<svg
   height="24px"
   viewBox="0 -960 960 960"
   width="24px"
   fill="#e8eaed"
   version="1.1"
   id="svg134"
   sodipodi:docname="flip.svg"
   inkscape:version="1.2.2 (b0a84865, 2022-12-01)"
   xmlns:inkscape="http://www.inkscape.org/namespaces/inkscape"
   xmlns:sodipodi="http://sodipodi.sourceforge.net/DTD/sodipodi-0.dtd"
   xmlns="http://www.w3.org/2000/svg"
   xmlns:svg="http://www.w3.org/2000/svg">
  <defs
     id="defs138" />
  <sodipodi:namedview
     id="namedview136"
     pagecolor="#ffffff"
     bordercolor="#666666"
     borderopacity="1.0"
     inkscape:showpageshadow="2"
     inkscape:pageopacity="0.0"
     inkscape:pagecheckerboard="0"
     inkscape:deskcolor="#d1d1d1"
     showgrid="false"
     inkscape:zoom="18.845426"
     inkscape:cx="7.4023267"
     inkscape:cy="10.241212"
     inkscape:window-width="1352"
     inkscape:window-height="728"
     inkscape:window-x="0"
     inkscape:window-y="35"
     inkscape:window-maximized="1"
     inkscape:current-layer="svg134" />
  <path
     d="m 480,-80 c -95.33333,0 -179.66667,-30 -253,-90 -73.33333,-60 -119.66667,-136.66667 -139,-230 h 82 c 18.66667,70.66667 56.66667,128.33333 114,173 57.33333,44.66667 122.66667,67 196,67 57.33333,0 110.66667,-14.16667 160,-42.5 49.33333,-28.33333 88,-67.5 116,-117.5 H 640 v -80 h 240 v 240 h -80 v -80 c -38,50.66667 -85,90 -141,118 -56,28 -115.66667,42 -179,42 z m -85,-315 v -170 h 170 v 170 z M 80,-560 v -240 h 80 v 80 c 38,-50.66667 85,-90 141,-118 56,-28 115.66667,-42 179,-42 95.33333,0 179.66667,30 253,90 73.33333,60 119.66667,136.66667 139,230 h -82 c -18.66667,-70.66667 -56.66667,-128.33333 -114,-173 -57.33333,-44.66667 -122.66667,-67 -196,-67 -57.33333,0 -110.66667,14.16667 -160,42.5 -49.33333,28.33333 -88,67.5 -116,117.5 h 116 v 80 z"
     id="path132"
     sodipodi:nodetypes="ssccssscccccccsscccccccccsssccssscccc"
     style="fill:#ffffff;fill-opacity:1" />
</svg>
